<svg width="300" height="300" viewBox="0 0 300 300" fill="none" xmlns="http://www.w3.org/2000/svg">
  <!-- Background circle -->
  <circle cx="150" cy="150" r="148" fill="white" fillOpacity="0.1" stroke="white" strokeWidth="3"/>
  
  <!-- Bicycle illustration -->
  <g transform="translate(50, 50) scale(1.3)">
    <!-- Wheels -->
    <circle cx="30" cy="120" r="30" fill="white" fillOpacity="0.2" stroke="white" strokeWidth="4"/>
    <circle cx="150" cy="120" r="30" fill="white" fillOpacity="0.2" stroke="white" strokeWidth="4"/>
    
    <!-- Wheel hubs -->
    <circle cx="30" cy="120" r="5" fill="white"/>
    <circle cx="150" cy="120" r="5" fill="white"/>
    
    <!-- Wheel spokes -->
    <path d="M30,90 L30,150" stroke="white" strokeWidth="2"/>
    <path d="M0,120 L60,120" stroke="white" strokeWidth="2"/>
    <path d="M9,99 L51,141" stroke="white" strokeWidth="2"/>
    <path d="M9,141 L51,99" stroke="white" strokeWidth="2"/>
    
    <path d="M150,90 L150,150" stroke="white" strokeWidth="2"/>
    <path d="M120,120 L180,120" stroke="white" strokeWidth="2"/>
    <path d="M129,99 L171,141" stroke="white" strokeWidth="2"/>
    <path d="M129,141 L171,99" stroke="white" strokeWidth="2"/>
    
    <!-- Frame -->
    <path d="M30,120 L90,50 L150,120" stroke="white" strokeWidth="5" fill="none" strokeLinejoin="round"/>
    <path d="M90,50 L90,120" stroke="white" strokeWidth="5" fill="none"/>
    <path d="M30,120 L90,120" stroke="white" strokeWidth="5" fill="none"/>
    
    <!-- Handlebar -->
    <path d="M90,50 L70,40" stroke="white" strokeWidth="4" strokeLinecap="round"/>
    <path d="M90,50 L110,40" stroke="white" strokeWidth="4" strokeLinecap="round"/>
    
    <!-- Seat -->
    <path d="M90,70 L110,60" stroke="white" strokeWidth="4" strokeLinecap="round"/>
    <path d="M110,60 L125,60" stroke="white" strokeWidth="5" strokeLinecap="round"/>
    
    <!-- Pedals and crank -->
    <circle cx="90" cy="120" r="10" fill="white" fillOpacity="0.3" stroke="white" strokeWidth="3"/>
    <path d="M90,110 L80,90" stroke="white" strokeWidth="3" strokeLinecap="round"/>
    <path d="M80,90 L75,90" stroke="white" strokeWidth="4" strokeLinecap="round"/>
    
    <!-- Chain -->
    <path d="M90,120 C110,130 130,130 150,120" stroke="white" strokeWidth="2" strokeDasharray="3 3" fill="none"/>
  </g>
</svg> 